<mxfile host="app.diagrams.net" modified="2022-01-11T22:01:00.622Z" agent="5.0 (Macintosh; Intel Mac OS X 10_15_7) AppleWebKit/537.36 (KHTML, like Gecko) Chrome/96.0.4664.110 Safari/537.36" etag="3052MyXFBhRo4Fk9Kuap" version="16.2.4" type="github">
  <diagram id="yPxyJZ8AM_hMuL3Unpa9" name="gitflow">
    <mxGraphModel dx="2076" dy="1043" grid="1" gridSize="10" guides="1" tooltips="1" connect="1" arrows="1" fold="1" page="1" pageScale="1" pageWidth="850" pageHeight="1100" math="0" shadow="0">
      <root>
        <mxCell id="0" />
        <mxCell id="1" parent="0" />
        <mxCell id="22" style="edgeStyle=orthogonalEdgeStyle;rounded=1;orthogonalLoop=1;jettySize=auto;html=1;dashed=1;endArrow=none;endFill=0;fillColor=#d5e8d4;strokeColor=#82b366;entryX=0;entryY=0.5;entryDx=0;entryDy=0;startArrow=none;" parent="1" source="247NgSY7hWucnOLWrqOx-229" target="42" edge="1">
          <mxGeometry relative="1" as="geometry">
            <Array as="points">
              <mxPoint x="40" y="238" />
            </Array>
            <mxPoint x="780" y="190" as="targetPoint" />
          </mxGeometry>
        </mxCell>
        <mxCell id="4" value="" style="ellipse;whiteSpace=wrap;html=1;aspect=fixed;fillColor=#dae8fc;strokeColor=#6c8ebf;fontStyle=1;labelPosition=center;verticalLabelPosition=top;align=center;verticalAlign=bottom;fontColor=#0066CC;" parent="1" vertex="1">
          <mxGeometry x="30" y="60" width="20" height="20" as="geometry" />
        </mxCell>
        <mxCell id="7" value="empty" style="text;html=1;strokeColor=#6c8ebf;fillColor=#dae8fc;align=center;verticalAlign=middle;whiteSpace=wrap;rounded=0;" parent="1" vertex="1">
          <mxGeometry x="996" y="60" width="90" height="20" as="geometry" />
        </mxCell>
        <mxCell id="20" value="master" style="text;html=1;strokeColor=#b85450;fillColor=#f8cecc;align=center;verticalAlign=middle;whiteSpace=wrap;rounded=0;" parent="1" vertex="1">
          <mxGeometry x="996" y="120" width="90" height="20" as="geometry" />
        </mxCell>
        <mxCell id="73" style="edgeStyle=orthogonalEdgeStyle;rounded=1;orthogonalLoop=1;jettySize=auto;html=1;dashed=1;endArrow=none;endFill=0;fontSize=10;fontColor=#FFB570;fillColor=#e1d5e7;strokeColor=#9673a6;entryX=0;entryY=0.5;entryDx=0;entryDy=0;" parent="1" target="247NgSY7hWucnOLWrqOx-183" edge="1">
          <mxGeometry relative="1" as="geometry">
            <Array as="points">
              <mxPoint x="40" y="348" />
            </Array>
            <mxPoint x="40" y="90" as="sourcePoint" />
            <mxPoint x="80" y="290" as="targetPoint" />
          </mxGeometry>
        </mxCell>
        <mxCell id="172" style="edgeStyle=orthogonalEdgeStyle;rounded=1;orthogonalLoop=1;jettySize=auto;html=1;dashed=1;endArrow=none;endFill=0;fontSize=12;fontColor=#FFB570;fillColor=#e1d5e7;strokeColor=#9673a6;startArrow=none;entryX=0;entryY=0.5;entryDx=0;entryDy=0;" parent="1" target="20" edge="1">
          <mxGeometry relative="1" as="geometry">
            <Array as="points" />
            <mxPoint x="640" y="130" as="sourcePoint" />
            <mxPoint x="820" y="130" as="targetPoint" />
          </mxGeometry>
        </mxCell>
        <mxCell id="35" value="" style="endArrow=none;dashed=1;html=1;fillColor=#dae8fc;strokeColor=#6c8ebf;startArrow=none;" parent="1" source="247NgSY7hWucnOLWrqOx-246" target="7" edge="1">
          <mxGeometry width="50" height="50" relative="1" as="geometry">
            <mxPoint x="49.9999999999917" y="70" as="sourcePoint" />
            <mxPoint x="640" y="70" as="targetPoint" />
            <Array as="points" />
          </mxGeometry>
        </mxCell>
        <mxCell id="42" value="Stage" style="text;html=1;strokeColor=#d79b00;fillColor=#ffe6cc;align=center;verticalAlign=middle;whiteSpace=wrap;rounded=0;fontSize=12;" parent="1" vertex="1">
          <mxGeometry x="996" y="228" width="90" height="20" as="geometry" />
        </mxCell>
        <mxCell id="247NgSY7hWucnOLWrqOx-180" style="edgeStyle=orthogonalEdgeStyle;rounded=1;orthogonalLoop=1;jettySize=auto;html=1;dashed=1;endArrow=none;endFill=0;fillColor=#d5e8d4;strokeColor=#82b366;entryX=0;entryY=0.5;entryDx=0;entryDy=0;startArrow=none;" edge="1" parent="1" source="247NgSY7hWucnOLWrqOx-225" target="247NgSY7hWucnOLWrqOx-181">
          <mxGeometry relative="1" as="geometry">
            <Array as="points">
              <mxPoint x="40" y="291" />
            </Array>
            <mxPoint x="220.05012562893398" y="292" as="sourcePoint" />
            <mxPoint x="820" y="292" as="targetPoint" />
          </mxGeometry>
        </mxCell>
        <mxCell id="247NgSY7hWucnOLWrqOx-181" value="uat" style="text;html=1;strokeColor=#006EAF;fillColor=#1ba1e2;align=center;verticalAlign=middle;whiteSpace=wrap;rounded=0;fontColor=#ffffff;" vertex="1" parent="1">
          <mxGeometry x="996" y="281" width="90" height="20" as="geometry" />
        </mxCell>
        <mxCell id="247NgSY7hWucnOLWrqOx-183" value="" style="ellipse;whiteSpace=wrap;html=1;aspect=fixed;fillColor=#d5e8d4;strokeColor=#82b366;" vertex="1" parent="1">
          <mxGeometry x="80" y="338" width="20" height="20" as="geometry" />
        </mxCell>
        <mxCell id="247NgSY7hWucnOLWrqOx-184" value="" style="ellipse;whiteSpace=wrap;html=1;aspect=fixed;fillColor=#d5e8d4;strokeColor=#82b366;" vertex="1" parent="1">
          <mxGeometry x="130" y="338" width="20" height="20" as="geometry" />
        </mxCell>
        <mxCell id="247NgSY7hWucnOLWrqOx-185" style="edgeStyle=orthogonalEdgeStyle;rounded=1;orthogonalLoop=1;jettySize=auto;html=1;dashed=1;endArrow=none;endFill=0;fillColor=#d5e8d4;strokeColor=#82b366;entryX=0;entryY=0.5;entryDx=0;entryDy=0;exitX=1;exitY=0.5;exitDx=0;exitDy=0;" edge="1" parent="1" source="247NgSY7hWucnOLWrqOx-183" target="247NgSY7hWucnOLWrqOx-184">
          <mxGeometry relative="1" as="geometry">
            <Array as="points">
              <mxPoint x="110" y="348" />
              <mxPoint x="110" y="348" />
            </Array>
            <mxPoint x="50" y="193" as="sourcePoint" />
            <mxPoint x="830" y="303" as="targetPoint" />
          </mxGeometry>
        </mxCell>
        <mxCell id="247NgSY7hWucnOLWrqOx-186" style="edgeStyle=orthogonalEdgeStyle;rounded=1;orthogonalLoop=1;jettySize=auto;html=1;dashed=1;endArrow=none;endFill=0;fontSize=12;fontColor=#FFB570;jumpStyle=arc;jumpSize=6;exitX=1;exitY=0.5;exitDx=0;exitDy=0;entryX=0.5;entryY=0;entryDx=0;entryDy=0;" edge="1" parent="1" source="247NgSY7hWucnOLWrqOx-184" target="247NgSY7hWucnOLWrqOx-187">
          <mxGeometry relative="1" as="geometry">
            <Array as="points">
              <mxPoint x="210" y="348" />
              <mxPoint x="210" y="292" />
              <mxPoint x="230" y="292" />
            </Array>
            <mxPoint x="120" y="622" as="sourcePoint" />
            <mxPoint x="210" y="298" as="targetPoint" />
          </mxGeometry>
        </mxCell>
        <mxCell id="247NgSY7hWucnOLWrqOx-187" value="" style="ellipse;whiteSpace=wrap;html=1;aspect=fixed;fillColor=#d5e8d4;strokeColor=#82b366;" vertex="1" parent="1">
          <mxGeometry x="220" y="282" width="20" height="20" as="geometry" />
        </mxCell>
        <mxCell id="247NgSY7hWucnOLWrqOx-191" style="edgeStyle=orthogonalEdgeStyle;rounded=1;orthogonalLoop=1;jettySize=auto;html=1;dashed=1;endArrow=none;endFill=0;fillColor=#d5e8d4;strokeColor=#82b366;startArrow=none;" edge="1" parent="1" source="247NgSY7hWucnOLWrqOx-192">
          <mxGeometry relative="1" as="geometry">
            <Array as="points">
              <mxPoint x="160" y="348" />
              <mxPoint x="160" y="348" />
            </Array>
            <mxPoint x="60" y="348" as="sourcePoint" />
            <mxPoint x="380" y="348" as="targetPoint" />
          </mxGeometry>
        </mxCell>
        <mxCell id="247NgSY7hWucnOLWrqOx-192" value="" style="ellipse;whiteSpace=wrap;html=1;aspect=fixed;fillColor=#d5e8d4;strokeColor=#82b366;" vertex="1" parent="1">
          <mxGeometry x="273" y="338" width="20" height="20" as="geometry" />
        </mxCell>
        <mxCell id="247NgSY7hWucnOLWrqOx-193" value="" style="edgeStyle=orthogonalEdgeStyle;rounded=1;orthogonalLoop=1;jettySize=auto;html=1;dashed=1;endArrow=none;endFill=0;fillColor=#d5e8d4;strokeColor=#82b366;" edge="1" parent="1" target="247NgSY7hWucnOLWrqOx-192">
          <mxGeometry relative="1" as="geometry">
            <Array as="points" />
            <mxPoint x="60" y="348" as="sourcePoint" />
            <mxPoint x="660" y="348" as="targetPoint" />
          </mxGeometry>
        </mxCell>
        <mxCell id="247NgSY7hWucnOLWrqOx-194" style="edgeStyle=orthogonalEdgeStyle;rounded=1;orthogonalLoop=1;jettySize=auto;html=1;dashed=1;endArrow=none;endFill=0;fontSize=12;fontColor=#FFB570;jumpStyle=arc;jumpSize=6;exitX=1;exitY=0.5;exitDx=0;exitDy=0;entryX=0;entryY=0.5;entryDx=0;entryDy=0;" edge="1" parent="1" source="247NgSY7hWucnOLWrqOx-192" target="247NgSY7hWucnOLWrqOx-195">
          <mxGeometry relative="1" as="geometry">
            <Array as="points">
              <mxPoint x="310" y="348" />
              <mxPoint x="310" y="292" />
            </Array>
            <mxPoint x="160" y="358" as="sourcePoint" />
            <mxPoint x="240" y="292" as="targetPoint" />
          </mxGeometry>
        </mxCell>
        <mxCell id="247NgSY7hWucnOLWrqOx-195" value="" style="ellipse;whiteSpace=wrap;html=1;aspect=fixed;fillColor=#d5e8d4;strokeColor=#82b366;" vertex="1" parent="1">
          <mxGeometry x="345.97" y="282" width="20" height="20" as="geometry" />
        </mxCell>
        <mxCell id="247NgSY7hWucnOLWrqOx-196" value="" style="edgeStyle=orthogonalEdgeStyle;rounded=1;orthogonalLoop=1;jettySize=auto;html=1;dashed=1;endArrow=none;endFill=0;fillColor=#d5e8d4;strokeColor=#82b366;entryX=0;entryY=0.5;entryDx=0;entryDy=0;startArrow=none;" edge="1" parent="1" source="247NgSY7hWucnOLWrqOx-225" target="247NgSY7hWucnOLWrqOx-195">
          <mxGeometry relative="1" as="geometry">
            <Array as="points" />
            <mxPoint x="250" y="292" as="sourcePoint" />
            <mxPoint x="820" y="292" as="targetPoint" />
          </mxGeometry>
        </mxCell>
        <mxCell id="247NgSY7hWucnOLWrqOx-199" value="" style="ellipse;whiteSpace=wrap;html=1;aspect=fixed;fillColor=#d5e8d4;strokeColor=#82b366;" vertex="1" parent="1">
          <mxGeometry x="405" y="228" width="20" height="20" as="geometry" />
        </mxCell>
        <mxCell id="247NgSY7hWucnOLWrqOx-200" style="edgeStyle=orthogonalEdgeStyle;rounded=1;orthogonalLoop=1;jettySize=auto;html=1;dashed=1;endArrow=none;endFill=0;fontSize=12;fontColor=#FFB570;jumpStyle=arc;jumpSize=6;exitX=1;exitY=0.5;exitDx=0;exitDy=0;" edge="1" parent="1" source="247NgSY7hWucnOLWrqOx-192">
          <mxGeometry relative="1" as="geometry">
            <Array as="points">
              <mxPoint x="380" y="348" />
              <mxPoint x="380" y="238" />
              <mxPoint x="408" y="238" />
            </Array>
            <mxPoint x="290" y="358" as="sourcePoint" />
            <mxPoint x="400" y="238" as="targetPoint" />
          </mxGeometry>
        </mxCell>
        <mxCell id="247NgSY7hWucnOLWrqOx-205" value="CHG1 Branch" style="text;html=1;strokeColor=#666666;fillColor=#f5f5f5;align=center;verticalAlign=middle;whiteSpace=wrap;rounded=0;fontSize=12;fontColor=#333333;" vertex="1" parent="1">
          <mxGeometry x="996" y="177" width="90" height="20" as="geometry" />
        </mxCell>
        <mxCell id="247NgSY7hWucnOLWrqOx-209" value="" style="shape=flexArrow;endArrow=classic;html=1;rounded=0;endWidth=8;endSize=3.67;strokeWidth=0;fillColor=#CCCCCC;" edge="1" parent="1">
          <mxGeometry width="50" height="50" relative="1" as="geometry">
            <mxPoint x="431" y="225" as="sourcePoint" />
            <mxPoint x="530" y="199" as="targetPoint" />
          </mxGeometry>
        </mxCell>
        <mxCell id="247NgSY7hWucnOLWrqOx-214" value="" style="edgeStyle=orthogonalEdgeStyle;rounded=1;orthogonalLoop=1;jettySize=auto;html=1;dashed=1;endArrow=none;endFill=0;fontSize=12;fontColor=#FFB570;fillColor=#e1d5e7;strokeColor=#9673a6;startArrow=none;" edge="1" parent="1">
          <mxGeometry relative="1" as="geometry">
            <Array as="points">
              <mxPoint x="40" y="130" />
            </Array>
            <mxPoint x="540" y="130" as="sourcePoint" />
            <mxPoint x="620" y="130" as="targetPoint" />
          </mxGeometry>
        </mxCell>
        <mxCell id="247NgSY7hWucnOLWrqOx-215" value="Feature / Story1" style="text;html=1;strokeColor=#82b366;fillColor=#d5e8d4;align=center;verticalAlign=middle;whiteSpace=wrap;rounded=0;" vertex="1" parent="1">
          <mxGeometry x="996" y="338" width="90" height="20" as="geometry" />
        </mxCell>
        <mxCell id="247NgSY7hWucnOLWrqOx-216" value="" style="ellipse;whiteSpace=wrap;html=1;aspect=fixed;fillColor=#e6d0de;strokeColor=#996185;gradientColor=#d5739d;" vertex="1" parent="1">
          <mxGeometry x="140" y="411" width="20" height="20" as="geometry" />
        </mxCell>
        <mxCell id="247NgSY7hWucnOLWrqOx-222" value="Feature / Story2" style="text;html=1;strokeColor=#996185;fillColor=#e6d0de;align=center;verticalAlign=middle;whiteSpace=wrap;rounded=0;gradientColor=#d5739d;" vertex="1" parent="1">
          <mxGeometry x="996" y="410" width="90" height="20" as="geometry" />
        </mxCell>
        <mxCell id="247NgSY7hWucnOLWrqOx-223" style="edgeStyle=orthogonalEdgeStyle;rounded=1;orthogonalLoop=1;jettySize=auto;html=1;dashed=1;endArrow=none;endFill=0;fontSize=10;fontColor=#FFB570;fillColor=#e6d0de;strokeColor=#996185;gradientColor=#d5739d;" edge="1" parent="1">
          <mxGeometry relative="1" as="geometry">
            <Array as="points">
              <mxPoint x="40" y="421" />
            </Array>
            <mxPoint x="40" y="77" as="sourcePoint" />
            <mxPoint x="440" y="421" as="targetPoint" />
          </mxGeometry>
        </mxCell>
        <mxCell id="247NgSY7hWucnOLWrqOx-224" style="edgeStyle=orthogonalEdgeStyle;rounded=1;orthogonalLoop=1;jettySize=auto;html=1;dashed=1;endArrow=none;endFill=0;fontSize=12;fontColor=#FFB570;jumpStyle=arc;jumpSize=6;" edge="1" parent="1">
          <mxGeometry relative="1" as="geometry">
            <Array as="points">
              <mxPoint x="250" y="420" />
              <mxPoint x="250" y="292" />
            </Array>
            <mxPoint x="160" y="420" as="sourcePoint" />
            <mxPoint x="280.8348486100881" y="292" as="targetPoint" />
          </mxGeometry>
        </mxCell>
        <mxCell id="247NgSY7hWucnOLWrqOx-226" value="" style="edgeStyle=orthogonalEdgeStyle;rounded=1;orthogonalLoop=1;jettySize=auto;html=1;dashed=1;endArrow=none;endFill=0;fillColor=#d5e8d4;strokeColor=#82b366;entryX=0;entryY=0.5;entryDx=0;entryDy=0;startArrow=none;" edge="1" parent="1" target="247NgSY7hWucnOLWrqOx-225">
          <mxGeometry relative="1" as="geometry">
            <Array as="points" />
            <mxPoint x="250" y="292" as="sourcePoint" />
            <mxPoint x="345.97000000000025" y="292" as="targetPoint" />
          </mxGeometry>
        </mxCell>
        <mxCell id="247NgSY7hWucnOLWrqOx-225" value="" style="ellipse;whiteSpace=wrap;html=1;aspect=fixed;fillColor=#e6d0de;strokeColor=#996185;gradientColor=#d5739d;" vertex="1" parent="1">
          <mxGeometry x="280" y="281" width="20" height="20" as="geometry" />
        </mxCell>
        <mxCell id="247NgSY7hWucnOLWrqOx-227" value="" style="edgeStyle=orthogonalEdgeStyle;rounded=1;orthogonalLoop=1;jettySize=auto;html=1;dashed=1;endArrow=none;endFill=0;fillColor=#d5e8d4;strokeColor=#82b366;entryX=0;entryY=0.5;entryDx=0;entryDy=0;startArrow=none;" edge="1" parent="1" source="247NgSY7hWucnOLWrqOx-195" target="247NgSY7hWucnOLWrqOx-225">
          <mxGeometry relative="1" as="geometry">
            <Array as="points">
              <mxPoint x="40" y="292" />
            </Array>
            <mxPoint x="345.97000000000025" y="292" as="sourcePoint" />
            <mxPoint x="996" y="291" as="targetPoint" />
          </mxGeometry>
        </mxCell>
        <mxCell id="247NgSY7hWucnOLWrqOx-228" style="edgeStyle=orthogonalEdgeStyle;rounded=1;orthogonalLoop=1;jettySize=auto;html=1;dashed=1;endArrow=none;endFill=0;fontSize=12;fontColor=#FFB570;jumpStyle=arc;jumpSize=6;entryX=0;entryY=1;entryDx=0;entryDy=0;" edge="1" parent="1" target="247NgSY7hWucnOLWrqOx-229">
          <mxGeometry relative="1" as="geometry">
            <Array as="points">
              <mxPoint x="460" y="420" />
              <mxPoint x="460" y="238" />
              <mxPoint x="503" y="238" />
            </Array>
            <mxPoint x="160" y="420" as="sourcePoint" />
            <mxPoint x="290.4148486100881" y="301" as="targetPoint" />
          </mxGeometry>
        </mxCell>
        <mxCell id="247NgSY7hWucnOLWrqOx-229" value="" style="ellipse;whiteSpace=wrap;html=1;aspect=fixed;fillColor=#e6d0de;strokeColor=#996185;gradientColor=#d5739d;" vertex="1" parent="1">
          <mxGeometry x="500" y="228" width="20" height="20" as="geometry" />
        </mxCell>
        <mxCell id="247NgSY7hWucnOLWrqOx-233" value="" style="ellipse;whiteSpace=wrap;html=1;aspect=fixed;fillColor=#e6d0de;strokeColor=#996185;gradientColor=#d5739d;" vertex="1" parent="1">
          <mxGeometry x="550" y="177" width="20" height="20" as="geometry" />
        </mxCell>
        <mxCell id="247NgSY7hWucnOLWrqOx-235" value="" style="shape=flexArrow;endArrow=classic;html=1;rounded=0;endWidth=8;endSize=3.67;strokeWidth=0;fillColor=#CCCCCC;" edge="1" parent="1">
          <mxGeometry width="50" height="50" relative="1" as="geometry">
            <mxPoint x="520" y="228" as="sourcePoint" />
            <mxPoint x="552" y="202" as="targetPoint" />
          </mxGeometry>
        </mxCell>
        <mxCell id="247NgSY7hWucnOLWrqOx-236" style="edgeStyle=orthogonalEdgeStyle;rounded=1;orthogonalLoop=1;jettySize=auto;html=1;dashed=1;endArrow=none;endFill=0;fontSize=12;fontColor=#FFB570;jumpStyle=arc;jumpSize=6;exitX=1;exitY=0.5;exitDx=0;exitDy=0;startArrow=none;" edge="1" parent="1" source="247NgSY7hWucnOLWrqOx-241">
          <mxGeometry relative="1" as="geometry">
            <Array as="points">
              <mxPoint x="590" y="130" />
            </Array>
            <mxPoint x="570" y="186" as="sourcePoint" />
            <mxPoint x="620" y="130" as="targetPoint" />
          </mxGeometry>
        </mxCell>
        <mxCell id="247NgSY7hWucnOLWrqOx-239" value="" style="ellipse;whiteSpace=wrap;html=1;aspect=fixed;fillColor=#e6d0de;strokeColor=#996185;gradientColor=#d5739d;" vertex="1" parent="1">
          <mxGeometry x="610" y="120" width="20" height="20" as="geometry" />
        </mxCell>
        <mxCell id="247NgSY7hWucnOLWrqOx-207" value="" style="ellipse;whiteSpace=wrap;html=1;aspect=fixed;fillColor=#d5e8d4;strokeColor=#82b366;" vertex="1" parent="1">
          <mxGeometry x="540" y="177" width="20" height="20" as="geometry" />
        </mxCell>
        <mxCell id="247NgSY7hWucnOLWrqOx-240" value="" style="edgeStyle=orthogonalEdgeStyle;rounded=1;orthogonalLoop=1;jettySize=auto;html=1;dashed=1;endArrow=none;endFill=0;fontSize=12;fontColor=#FFB570;fillColor=#e1d5e7;strokeColor=#9673a6;exitX=0.5;exitY=1;exitDx=0;exitDy=0;" edge="1" parent="1" source="4" target="247NgSY7hWucnOLWrqOx-207">
          <mxGeometry relative="1" as="geometry">
            <Array as="points">
              <mxPoint x="40" y="187" />
            </Array>
            <mxPoint x="40" y="80" as="sourcePoint" />
            <mxPoint x="570" y="187" as="targetPoint" />
          </mxGeometry>
        </mxCell>
        <mxCell id="247NgSY7hWucnOLWrqOx-241" value="" style="ellipse;whiteSpace=wrap;html=1;aspect=fixed;fillColor=#d5e8d4;strokeColor=#82b366;" vertex="1" parent="1">
          <mxGeometry x="600" y="120" width="20" height="20" as="geometry" />
        </mxCell>
        <mxCell id="247NgSY7hWucnOLWrqOx-242" value="" style="edgeStyle=orthogonalEdgeStyle;rounded=1;orthogonalLoop=1;jettySize=auto;html=1;dashed=1;endArrow=none;endFill=0;fontSize=12;fontColor=#FFB570;jumpStyle=arc;jumpSize=6;exitX=1;exitY=0.5;exitDx=0;exitDy=0;" edge="1" parent="1" target="247NgSY7hWucnOLWrqOx-241">
          <mxGeometry relative="1" as="geometry">
            <Array as="points">
              <mxPoint x="590" y="186" />
            </Array>
            <mxPoint x="570" y="186" as="sourcePoint" />
            <mxPoint x="620" y="130" as="targetPoint" />
          </mxGeometry>
        </mxCell>
        <mxCell id="247NgSY7hWucnOLWrqOx-244" value="Feature / Story2" style="text;html=1;strokeColor=#82b366;fillColor=#d5e8d4;align=center;verticalAlign=middle;whiteSpace=wrap;rounded=0;gradientColor=#97d077;" vertex="1" parent="1">
          <mxGeometry x="990" y="500" width="90" height="20" as="geometry" />
        </mxCell>
        <mxCell id="247NgSY7hWucnOLWrqOx-245" value="" style="ellipse;whiteSpace=wrap;html=1;aspect=fixed;fillColor=#e6d0de;strokeColor=#996185;gradientColor=#d5739d;" vertex="1" parent="1">
          <mxGeometry x="560" y="500" width="20" height="20" as="geometry" />
        </mxCell>
        <mxCell id="247NgSY7hWucnOLWrqOx-246" value="jenkins file update" style="ellipse;whiteSpace=wrap;html=1;aspect=fixed;fillColor=#dae8fc;strokeColor=#6c8ebf;fontStyle=1;labelPosition=center;verticalLabelPosition=top;align=center;verticalAlign=bottom;fontColor=#0066CC;" vertex="1" parent="1">
          <mxGeometry x="670" y="60" width="20" height="20" as="geometry" />
        </mxCell>
        <mxCell id="247NgSY7hWucnOLWrqOx-247" value="" style="endArrow=none;dashed=1;html=1;fillColor=#dae8fc;strokeColor=#6c8ebf;" edge="1" parent="1" source="4" target="247NgSY7hWucnOLWrqOx-246">
          <mxGeometry width="50" height="50" relative="1" as="geometry">
            <mxPoint x="50" y="70" as="sourcePoint" />
            <mxPoint x="996" y="70" as="targetPoint" />
            <Array as="points" />
          </mxGeometry>
        </mxCell>
      </root>
    </mxGraphModel>
  </diagram>
</mxfile>
